<?xml version="1.0" standalone="no"?>
<!DOCTYPE svg PUBLIC "-//W3C//DTD SVG 20010904//EN"
 "http://www.w3.org/TR/2001/REC-SVG-20010904/DTD/svg10.dtd">
<svg version="1.0" xmlns="http://www.w3.org/2000/svg"
 width="1137.000000pt" height="1090.000000pt" viewBox="0 0 1137.000000 1090.000000"
 preserveAspectRatio="xMidYMid meet">

<g transform="translate(0.000000,1090.000000) scale(0.100000,-0.100000)"
fill="#264653" stroke="none">
<path d="M4480 8941 c-211 -23 -485 -115 -678 -230 -29 -17 -55 -31 -58 -31
-9 0 -156 -102 -224 -154 -100 -78 -135 -110 -265 -241 -205 -206 -338 -405
-404 -601 -40 -118 -41 -186 -4 -294 l27 -80 -35 -38 c-98 -104 -131 -212
-108 -347 22 -122 122 -282 271 -434 121 -122 340 -286 466 -348 40 -20 75
-40 78 -45 3 -4 -1 -22 -9 -40 -67 -150 -81 -178 -89 -178 -4 0 -36 11 -71 25
-282 115 -688 128 -969 31 -217 -75 -394 -184 -546 -334 -120 -119 -139 -141
-206 -245 -108 -165 -178 -340 -220 -547 -21 -103 -21 -123 -21 -1158 0 -931
2 -1052 15 -1046 8 3 83 30 165 59 83 29 240 86 350 125 110 40 246 88 302
109 l103 36 0 840 c0 537 4 863 11 905 27 171 187 339 359 379 68 16 199 13
261 -5 153 -45 276 -173 319 -333 8 -32 11 -236 11 -748 -1 -386 0 -703 2
-703 2 0 32 12 68 26 229 91 1085 408 1374 509 l150 53 6 673 c5 645 6 677 26
749 46 164 104 267 214 380 126 131 259 200 444 235 181 34 402 -13 565 -121
122 -80 246 -225 301 -350 11 -27 32 -96 45 -154 l24 -105 0 -656 0 -656 109
-31 c61 -17 176 -56 258 -86 292 -108 1059 -397 1131 -427 41 -17 80 -33 87
-36 12 -4 15 103 17 714 l3 718 23 58 c50 122 160 235 272 278 78 30 227 37
305 14 134 -39 230 -115 292 -231 63 -119 62 -103 63 -1033 0 -464 2 -847 5
-851 3 -5 36 -18 73 -31 65 -21 268 -94 661 -238 107 -39 195 -71 197 -71 10
0 3 2052 -7 2135 -38 325 -186 625 -423 860 -61 61 -145 133 -186 160 -98 65
-285 159 -358 181 -336 99 -701 85 -985 -38 -38 -16 -70 -28 -72 -26 -12 11
-93 213 -89 220 3 4 44 28 92 53 96 49 274 170 373 254 130 108 281 293 337
412 12 25 27 82 33 127 19 130 -16 237 -109 334 -23 25 -33 43 -29 55 3 10 15
45 26 77 36 102 26 216 -30 346 -90 211 -268 446 -484 640 -228 204 -440 339
-705 448 -191 79 -470 123 -653 103 -127 -14 -347 -62 -347 -76 0 -2 37 -17
83 -35 227 -86 483 -249 659 -419 128 -124 146 -146 228 -273 l50 -78 -90 0
c-49 0 -117 7 -152 15 -35 8 -80 17 -101 20 -128 21 -509 177 -624 257 -24 16
-48 28 -52 26 -12 -4 73 -197 130 -294 135 -231 407 -486 699 -657 226 -131
428 -219 614 -267 44 -11 100 -20 125 -21 91 -1 93 -10 16 -65 -103 -72 -221
-189 -275 -271 -40 -60 -73 -134 -107 -233 -3 -11 -12 -6 -31 20 -14 19 -93
103 -176 186 -178 178 -304 275 -526 404 -66 39 -117 64 -265 130 -22 10 -103
38 -180 63 -125 39 -215 59 -448 97 -37 6 -161 10 -275 10 -168 -1 -235 -6
-357 -26 -402 -65 -746 -214 -1088 -470 -111 -84 -327 -293 -372 -362 -15 -24
-32 -39 -36 -35 -4 4 -17 35 -28 67 -11 33 -35 84 -53 114 -47 79 -177 213
-282 290 l-90 67 40 7 c267 49 370 81 554 169 259 124 490 285 678 472 138
137 204 221 276 354 56 103 121 252 113 260 -3 2 -37 -17 -77 -43 -181 -117
-435 -217 -655 -258 -128 -24 -279 -39 -289 -29 -6 7 51 97 112 178 79 104
203 225 322 314 136 102 224 154 423 252 114 56 145 75 130 81 -10 4 -74 19
-143 32 -140 28 -298 38 -410 27z"/>
</g>
</svg>
