<?xml version="1.0" standalone="no"?>
<!DOCTYPE svg PUBLIC "-//W3C//DTD SVG 20010904//EN"
 "http://www.w3.org/TR/2001/REC-SVG-20010904/DTD/svg10.dtd">
<svg version="1.0" xmlns="http://www.w3.org/2000/svg"
 width="2048.000000pt" height="2048.000000pt" viewBox="0 0 2048.000000 2048.000000"
 preserveAspectRatio="xMidYMid meet">

<g transform="translate(0.000000,2048.000000) scale(0.100000,-0.100000)"
fill="#264653" stroke="none">
<path d="M8550 15470 c-183 -19 -383 -75 -545 -149 -122 -57 -159 -115 -120
-190 20 -40 81 -62 200 -72 55 -4 150 -20 210 -34 198 -47 465 -166 503 -224
l14 -21 -128 0 c-150 0 -380 33 -457 65 -47 19 -140 19 -177 0 -41 -21 -62
-95 -42 -145 36 -88 303 -326 528 -468 58 -37 293 -145 399 -185 227 -84 470
-137 630 -137 64 0 105 -4 105 -10 0 -6 -13 -34 -29 -63 -32 -56 -81 -208 -81
-248 0 -20 11 -31 63 -57 34 -18 74 -40 89 -50 41 -25 56 -10 93 94 41 116 75
178 141 257 79 97 191 157 289 157 40 0 48 -4 66 -32 17 -29 20 -45 16 -128
-4 -105 -30 -195 -75 -262 -15 -23 -36 -56 -47 -75 -35 -62 -171 -198 -281
-281 -59 -44 -111 -79 -116 -76 -4 3 -16 25 -27 50 -27 60 -130 166 -215 221
-187 121 -360 166 -646 167 -102 1 -220 -3 -264 -7 l-79 -9 6 29 c3 15 10 48
16 73 15 67 13 157 -4 190 -30 59 -104 76 -165 39 -49 -30 -57 -45 -70 -124
-13 -78 -48 -221 -61 -247 -6 -11 -90 -43 -240 -92 -127 -42 -238 -76 -247
-76 -19 0 -170 102 -215 145 -52 51 -97 75 -141 75 -31 0 -45 -7 -77 -39 -34
-33 -39 -45 -39 -83 0 -58 34 -106 123 -173 37 -27 67 -55 67 -60 0 -6 -24
-23 -53 -37 -181 -89 -394 -267 -518 -434 -104 -140 -149 -264 -149 -412 0
-181 49 -313 165 -446 l66 -75 -28 -7 c-186 -42 -336 -100 -486 -188 -125 -74
-198 -129 -278 -213 -176 -184 -287 -434 -308 -701 l-9 -111 -59 -73 c-109
-134 -260 -342 -334 -457 -180 -284 -267 -568 -256 -836 16 -394 215 -703 572
-888 125 -64 214 -86 372 -89 l112 -3 4 645 c3 555 6 655 20 713 18 74 86 245
125 317 148 270 424 470 747 542 115 26 323 28 443 4 112 -22 292 -92 292
-114 0 -9 -9 -64 -20 -122 -11 -58 -23 -147 -27 -197 -3 -51 -7 -93 -9 -93 -1
0 -17 13 -35 30 -115 105 -341 160 -538 131 -81 -12 -208 -56 -239 -84 -10 -8
-34 -22 -54 -32 -20 -9 -73 -54 -117 -100 -60 -63 -89 -103 -120 -166 -78
-163 -75 -128 -79 -836 l-3 -633 130 0 130 0 -4 568 c-3 464 -1 579 10 636 69
332 386 488 684 336 121 -61 204 -188 231 -352 6 -38 10 -292 10 -627 l0 -564
138 6 c137 5 322 39 399 73 17 8 36 14 43 14 14 0 363 99 500 142 175 54 372
131 403 157 58 49 57 39 57 667 0 483 3 592 16 671 69 402 422 693 811 668
155 -10 253 -42 377 -122 136 -87 260 -240 315 -388 50 -134 52 -159 52 -785
0 -322 4 -602 9 -623 12 -54 43 -84 125 -122 106 -48 463 -165 660 -215 17 -4
116 -32 220 -63 230 -66 300 -79 434 -81 l102 -1 -1 508 c0 342 3 507 10 507
5 0 76 -33 158 -74 180 -90 297 -134 467 -174 301 -70 549 -83 890 -46 77 8
166 21 198 29 31 8 86 19 122 25 201 32 560 170 642 246 29 28 33 38 33 82 0
68 -13 98 -50 117 -40 21 -85 12 -172 -31 -205 -103 -518 -190 -808 -225 -132
-16 -436 -17 -557 -1 -184 24 -458 101 -458 129 0 19 258 229 442 359 166 119
439 243 613 281 96 21 132 24 220 20 169 -9 318 -48 481 -128 265 -129 403
-280 400 -440 0 -37 -9 -93 -19 -126 -30 -95 -153 -292 -264 -421 -105 -123
-316 -342 -328 -342 -4 0 -26 29 -49 64 -107 163 -273 255 -462 256 -212 0
-469 -137 -794 -425 -190 -168 -308 -254 -614 -450 -234 -149 -284 -187 -406
-310 -221 -221 -336 -463 -336 -710 0 -153 22 -264 75 -370 42 -86 146 -222
198 -260 16 -12 19 -19 10 -22 -35 -13 -114 -88 -150 -142 -72 -108 -92 -211
-68 -342 30 -168 28 -183 -28 -193 -58 -11 -172 -74 -210 -116 -19 -22 -50
-68 -67 -102 -44 -87 -51 -203 -20 -296 66 -194 247 -357 461 -417 96 -27 278
-25 398 3 328 78 623 342 712 640 12 39 24 72 27 72 3 0 42 -20 86 -44 233
-125 460 -122 735 9 108 52 119 60 236 177 113 114 127 132 181 238 99 192
111 226 236 670 61 219 88 285 247 615 174 363 229 547 219 734 -8 143 -33
219 -108 332 -60 90 -172 175 -261 199 -21 6 -38 16 -38 22 0 6 63 75 140 154
76 80 152 161 167 182 15 20 46 60 69 87 41 50 154 220 154 232 0 4 11 23 25
43 14 20 39 77 57 126 28 79 32 105 36 224 4 132 3 137 -28 222 -26 71 -44
102 -98 165 -173 198 -566 394 -853 424 -61 6 -168 9 -237 7 l-126 -5 -41 45
c-56 63 -141 143 -200 189 -107 84 -321 193 -455 232 -287 82 -682 53 -919
-68 -24 -13 -47 -19 -51 -14 -4 4 -13 26 -20 48 -18 56 -109 243 -169 345
-117 201 -286 411 -447 556 -86 77 -268 215 -318 241 -17 9 -44 26 -61 38 -51
38 -293 155 -383 187 -300 104 -687 155 -972 129 -133 -12 -283 -35 -362 -56
-26 -6 -48 -8 -48 -4 0 5 24 52 53 106 29 54 64 121 77 148 l25 50 100 32
c139 44 223 61 342 68 122 8 215 -5 330 -45 167 -59 272 -127 387 -252 58 -62
83 -82 113 -89 97 -22 163 28 163 125 0 51 -13 70 -128 180 -236 226 -496 332
-812 330 -148 -1 -276 -20 -423 -60 -15 -5 -17 3 -16 84 l1 89 41 35 c23 19
65 49 92 68 344 233 554 541 572 840 9 160 -23 254 -126 363 -63 67 -64 69
-53 101 16 44 15 93 -4 179 -37 168 -140 317 -330 474 -309 257 -686 448
-1023 519 -130 27 -362 39 -491 24z m447 -274 c405 -82 943 -413 1095 -672 62
-107 74 -173 39 -231 -38 -62 -121 -94 -328 -128 -86 -14 -121 -15 -230 -6
-247 21 -403 61 -651 165 -105 45 -324 165 -355 195 -5 5 45 8 110 8 138 0
210 12 353 59 92 30 108 38 129 69 49 73 17 156 -102 265 -45 42 -104 92 -132
112 -52 37 -226 131 -305 163 l-45 19 35 7 c61 13 262 0 387 -25z m41 -1877
c183 -20 334 -78 429 -163 54 -49 113 -132 113 -159 0 -9 -18 -28 -40 -42 -22
-14 -51 -34 -63 -44 -12 -10 -68 -55 -123 -100 -197 -157 -328 -327 -389 -506
-42 -124 -45 -336 -6 -433 11 -29 21 -57 21 -61 0 -12 -108 -88 -180 -128 -48
-26 -171 -69 -295 -103 -63 -17 -224 -23 -295 -11 -35 6 -85 21 -110 34 -25
13 -101 52 -170 88 -84 44 -163 76 -240 98 -329 93 -387 120 -486 218 -152
153 -183 337 -88 525 34 67 48 86 137 177 94 96 305 238 457 307 19 9 69 32
110 51 405 189 887 289 1218 252z m567 -686 c-4 -27 -14 -68 -22 -93 -30 -89
-141 -306 -193 -375 -29 -38 -54 -76 -57 -83 -3 -6 -33 -35 -66 -63 -72 -60
-75 -57 -76 56 -2 136 36 229 148 363 81 99 238 242 265 242 4 0 5 -21 1 -47z
m905 -738 c144 -21 233 -42 365 -86 354 -118 666 -327 921 -617 211 -240 402
-616 464 -911 48 -226 50 -255 50 -1023 0 -441 -4 -728 -9 -728 -11 0 -220 55
-399 106 -214 60 -571 175 -602 194 -13 8 -16 94 -21 607 -4 436 -9 609 -18
638 -7 22 -23 75 -37 117 -139 448 -601 754 -1069 707 -210 -21 -356 -75 -518
-190 -248 -177 -402 -447 -437 -771 -5 -55 -10 -318 -10 -601 l0 -505 -32 -15
c-40 -18 -337 -116 -463 -152 -236 -69 -308 -89 -405 -111 -58 -13 -108 -24
-112 -24 -5 0 -8 324 -8 720 0 596 3 738 15 822 21 135 52 288 77 367 34 109
126 316 208 468 75 138 362 461 489 551 36 25 84 60 106 77 81 63 285 175 415
228 129 53 322 108 445 128 139 22 450 24 585 4z m-3006 -321 c67 -14 84 -20
75 -27 -2 -2 -51 -21 -109 -42 -209 -75 -314 -139 -463 -284 -165 -159 -247
-354 -247 -587 l0 -71 -74 -46 c-265 -168 -476 -458 -562 -773 -48 -179 -54
-251 -54 -752 l0 -463 -22 7 c-54 16 -197 95 -245 135 -118 96 -213 248 -254
406 -22 87 -26 267 -8 355 57 284 205 543 543 951 72 88 82 110 90 217 22 275
95 466 235 614 121 127 263 217 437 279 288 102 454 123 658 81z m566 -237
c54 -15 116 -21 222 -25 l147 -4 -42 -53 c-80 -100 -102 -130 -128 -171 -41
-63 -79 -134 -79 -145 0 -6 -11 -25 -24 -42 -20 -26 -90 -181 -119 -259 -6
-16 -9 -16 -61 2 -30 10 -63 23 -74 29 -34 18 -174 53 -272 67 -168 24 -353
13 -522 -30 -49 -13 -91 -20 -94 -15 -12 20 21 139 58 212 72 140 190 236 433
352 70 33 276 92 370 105 59 8 86 5 185 -23z m5205 -876 c115 -28 232 -75 322
-129 92 -56 226 -163 215 -173 -4 -3 -38 -19 -77 -34 -38 -15 -108 -49 -155
-76 -129 -73 -123 -72 -205 -28 -152 82 -301 104 -484 72 -91 -16 -225 -79
-270 -127 -14 -14 -30 -26 -36 -26 -8 0 -16 43 -24 124 -6 68 -18 161 -26 207
-13 79 -12 85 5 100 36 31 244 93 375 113 66 10 282 -4 360 -23z m-106 -632
c17 -6 31 -14 31 -18 0 -4 -19 -23 -42 -41 -57 -45 -174 -148 -277 -242 -46
-43 -91 -78 -99 -78 -21 0 -152 78 -158 95 -8 19 38 103 85 156 89 102 215
153 352 144 42 -3 91 -10 108 -16z m1007 -1244 c86 -26 135 -73 228 -214 95
-144 145 -187 267 -230 159 -56 202 -89 255 -193 22 -43 28 -71 32 -146 3 -60
0 -108 -8 -135 -42 -141 -62 -191 -141 -363 -48 -105 -110 -236 -137 -290 -62
-125 -132 -309 -167 -439 -125 -474 -189 -632 -319 -790 -51 -61 -66 -75 -139
-126 -162 -113 -355 -147 -508 -90 -54 21 -149 86 -156 107 -2 7 23 17 64 25
131 26 307 134 439 271 133 138 224 283 327 524 121 282 142 394 84 451 -37
38 -110 43 -157 11 -31 -21 -40 -39 -81 -153 -192 -547 -420 -820 -722 -866
-113 -18 -140 -6 -217 91 -107 137 -200 213 -354 290 -87 43 -91 47 -109 95
-27 71 -19 215 16 303 70 171 248 384 443 528 42 31 84 70 95 87 26 43 25 103
-3 143 -46 67 -121 74 -195 17 -74 -56 -211 -174 -279 -239 -127 -122 -270
-356 -310 -505 -22 -84 -43 -202 -37 -211 2 -5 -2 -8 -11 -8 -42 0 -162 187
-185 290 -14 59 -14 162 0 236 25 136 117 302 238 427 71 74 245 208 351 271
122 73 378 247 453 309 41 34 119 98 173 142 54 44 132 109 173 144 247 208
439 284 597 236z m-1615 -2456 c260 -85 470 -322 471 -529 0 -91 -16 -150 -69
-258 -55 -112 -136 -202 -259 -285 -136 -91 -243 -122 -405 -115 -90 3 -103 7
-182 46 -86 43 -159 108 -193 174 -25 49 -28 118 -6 158 17 31 33 40 133 79
130 51 182 94 212 177 22 62 21 90 -3 189 -24 96 -25 154 -5 221 26 89 120
159 216 163 14 1 55 -8 90 -20z"/>
<path d="M12804 5730 c-27 -11 -41 -50 -47 -130 -7 -93 -39 -170 -99 -235 -28
-31 -63 -62 -77 -70 -71 -37 -90 -89 -50 -139 57 -73 221 22 317 183 37 63 72
192 72 266 0 100 -49 153 -116 125z"/>
<path d="M6790 14945 c-196 -54 -437 -168 -575 -271 -106 -80 -259 -231 -333
-330 -126 -168 -290 -508 -356 -739 -91 -317 -100 -574 -27 -767 24 -62 96
-150 142 -174 23 -12 27 -18 20 -32 -5 -10 -12 -53 -16 -97 -6 -71 -4 -87 19
-148 33 -89 70 -140 159 -223 121 -112 311 -204 504 -244 90 -19 413 -33 427
-19 9 8 -29 123 -62 189 l-27 55 -100 2 c-218 5 -400 70 -563 202 -67 54 -113
149 -97 201 8 25 83 64 152 79 82 17 260 -12 348 -56 16 -9 71 -39 120 -68
115 -68 124 -70 140 -25 7 20 24 60 37 90 44 96 44 95 -4 130 -68 50 -120 79
-188 103 -35 12 -65 27 -67 34 -2 6 31 40 74 76 189 158 315 313 465 572 100
173 111 196 158 327 106 296 147 588 95 688 -40 78 -162 78 -209 -1 -9 -16
-22 -34 -29 -41 -7 -7 -47 -54 -89 -103 -42 -50 -105 -118 -140 -151 -67 -63
-183 -144 -206 -144 -13 0 -12 8 10 95 14 55 92 208 136 265 20 27 51 67 67
90 36 50 171 180 237 227 84 61 91 166 14 217 -36 23 -133 20 -236 -9z m-335
-447 c-114 -185 -185 -406 -185 -577 0 -112 17 -153 75 -177 47 -19 65 -18
153 12 145 48 253 109 379 211 35 29 53 39 49 27 -5 -10 -13 -35 -18 -54 -13
-47 -82 -208 -125 -294 -108 -216 -327 -472 -501 -589 -100 -67 -247 -142
-335 -171 -86 -29 -109 -31 -155 -15 -26 9 -34 20 -53 77 -61 185 -36 405 86
740 57 158 101 253 173 372 103 170 256 333 422 448 25 17 49 31 53 32 5 0 -4
-19 -18 -42z"/>
</g>
</svg>